<?xml version="1.0" encoding="utf-8"?>
<!-- Svg Vector Icons : http://www.onlinewebfonts.com/icon -->
<!DOCTYPE svg PUBLIC "-//W3C//DTD SVG 1.1//EN" "http://www.w3.org/Graphics/SVG/1.1/DTD/svg11.dtd">
<svg version="1.1" xmlns="http://www.w3.org/2000/svg" xmlns:xlink="http://www.w3.org/1999/xlink" x="0px" y="0px" viewBox="0 0 256 256" enable-background="new 0 0 256 256" xml:space="preserve">
<metadata> Svg Vector Icons : http://www.onlinewebfonts.com/icon </metadata>
<g><g><g><path fill="#000000" d="M123.7,4.9c-23.9,2-46.1,10.5-65.2,24.9c-6.1,4.6-16.2,14.4-21.2,20.6C25.9,64.5,17.8,80.7,13.5,98c-2.8,11.3-3.5,17-3.5,29.9c0,21,3.6,36.8,12.6,55.2c9.7,19.8,26.2,37.9,45.1,49.8c30.8,19.3,69,24.1,103.7,12.8c26.4-8.6,49.4-26,65-49.5c3.1-4.6,9.9-17.1,9.5-17.4c-0.4-0.4-37.4-16.8-37.8-16.8c-0.2,0-0.7,0.7-1,1.5c-1.2,2.9-5.9,10.4-9,14.3c-12.5,16-29.4,26.4-49.4,30.5c-4.7,1-7,1.1-15.7,1.1c-11.6,0-15.9-0.7-26.1-4.1c-12.8-4.2-22.9-10.8-33.1-21.2c-11.1-11.5-18.6-26.2-21.4-42.2c-1.2-6.8-1.5-19-0.5-25.2c5.2-34.9,30.5-61.8,65.2-69.4c4.5-0.9,6.5-1.1,16-1.1c12.3,0,16.3,0.6,26.2,3.9c8.4,2.8,17.8,7.9,25.1,13.6c0.9,0.7,0.4,1.3-12.1,13.8c-7.1,7.1-13,13.1-13,13.4c0,0.2,19.4,0.3,43.3,0.3H246V47.7c0-23.8-0.1-43.3-0.3-43.3c-0.2,0-7.3,6.9-15.7,15.3L214.6,35L211,32c-17.9-14.3-39.2-23.5-61.4-26.4C142.5,4.7,130.1,4.3,123.7,4.9z"/></g></g></g>
</svg>