<?xml version="1.0" encoding="UTF-8" standalone="no"?>
<!-- Created with Inkscape (http://www.inkscape.org/) -->
<svg
   xmlns:dc="http://purl.org/dc/elements/1.1/"
   xmlns:cc="http://web.resource.org/cc/"
   xmlns:rdf="http://www.w3.org/1999/02/22-rdf-syntax-ns#"
   xmlns:svg="http://www.w3.org/2000/svg"
   xmlns="http://www.w3.org/2000/svg"
   xmlns:sodipodi="http://sodipodi.sourceforge.net/DTD/sodipodi-0.dtd"
   xmlns:inkscape="http://www.inkscape.org/namespaces/inkscape"
   width="713"
   height="170"
   id="svg2"
   sodipodi:version="0.32"
   inkscape:version="0.44"
   sodipodi:docbase="D:\"
   sodipodi:docname="RMV Logo.svg"
   version="1.0">
  <defs
     id="defs4" />
  <sodipodi:namedview
     id="base"
     pagecolor="#ffffff"
     bordercolor="#666666"
     borderopacity="1.0"
     inkscape:pageopacity="0.0"
     inkscape:pageshadow="2"
     inkscape:zoom="1"
     inkscape:cx="321.08379"
     inkscape:cy="93.797599"
     inkscape:document-units="px"
     inkscape:current-layer="layer3"
     showguides="true"
     inkscape:guide-bbox="true"
     inkscape:window-width="1280"
     inkscape:window-height="952"
     inkscape:window-x="-4"
     inkscape:window-y="-4">
    <sodipodi:guide
       orientation="horizontal"
       position="887.94643"
       id="guide1936" />
    <sodipodi:guide
       orientation="horizontal"
       position="1037.0536"
       id="guide1938" />
  </sodipodi:namedview>
  <metadata
     id="metadata7">
    <rdf:RDF>
      <cc:Work
         rdf:about="">
        <dc:format>image/svg+xml</dc:format>
        <dc:type
           rdf:resource="http://purl.org/dc/dcmitype/StillImage" />
      </cc:Work>
    </rdf:RDF>
  </metadata>
  <g
     inkscape:groupmode="layer"
     id="layer3"
     inkscape:label="Background"
     style="display:inline">
    <path
       style="fill:#e0f1ef;fill-opacity:1;fill-rule:evenodd;stroke:none;stroke-width:1px;stroke-linecap:butt;stroke-linejoin:miter;stroke-opacity:1"
       d="M 133.28987,159.85731 L 534.11576,159.85731 L 638.04434,16.375176 L 636.8055,10.750149 L 176.8055,10.750149 L 175.76755,11.540354 L 133.28987,159.85731 z "
       id="path2854"
       sodipodi:nodetypes="ccccccc" />
  </g>
  <g
     inkscape:groupmode="layer"
     id="layer4"
     inkscape:label="Blue"
     style="display:inline">
    <path
       id="path2831"
       style="fill:#0a2c72;fill-opacity:1;fill-rule:evenodd;stroke:none;stroke-width:1px;stroke-linecap:butt;stroke-linejoin:miter;stroke-opacity:1"
       d="M 636.79434,10.750149 C 641.97864,13.133394 645.67159,17.505107 649.47291,21.732318 C 672.91569,51.833565 687.27352,78.091185 698.40148,102.98231 C 709.41997,125.51421 704.42577,143.71325 675.00862,155.30374 C 664.91384,158.53629 653.30905,160.42661 638.93719,159.85731 L 527.33005,159.85731 L 636.79434,10.750149 z M 507.25862,10.750149 L 569.00862,10.750149 L 513.75862,104.30375 L 510.38362,27.178751 L 473.00719,159.85731 L 466.99678,159.85731 L 467.21775,155.47918 L 507.25862,10.750149 z M 382.23236,159.85731 L 409.14661,159.85731 L 440.3477,54.318723 L 382.23236,159.85731 z M 384.57465,10.750149 L 429.60851,10.750149 L 386.82855,93.1654 L 384.57465,10.750149 z M 319.65341,159.85731 L 352.3129,159.85731 L 350.67772,55.02583 L 319.65341,159.85731 z M 306.7929,159.85731 L 313.11267,159.85731 C 308.87402,152.51351 309.12548,143.35918 312.18459,133.07273 L 314.65947,123.08485 C 317.13386,112.77263 316.72753,103.32412 311.03554,95.64027 L 306.61613,89.232124 L 307.30259,88.942054 C 319.33902,85.997844 327.31357,78.266388 332.75862,67.553751 C 335.48793,61.033909 337.71462,54.208129 337.75862,46.053751 C 338.25233,37.066041 336.66017,30.424924 333.38362,25.678751 L 320.38362,48.428751 L 294.13362,82.678751 L 291.75862,156.30374 L 306.7929,159.85731 z M 257.57112,74.241251 L 217.25862,74.241251 L 225.00862,47.366251 L 265.13362,47.366251 C 268.34759,47.46687 271.35723,47.635507 274.9731,50.164471 C 276.88557,51.884849 277.31748,53.882833 277.35958,55.953907 C 277.3786,59.184945 276.43967,62.342294 274.9289,65.455655 C 273.32097,68.791824 270.78841,70.895147 267.76945,72.349946 C 264.59395,73.596235 261.21778,74.290669 257.57112,74.241251 z M 243.50685,110.53371 L 207.00246,110.53371 L 192.41838,159.85731 L 249.69403,159.85731 C 249.34323,157.46678 249.71149,155.55563 250.04758,153.62303 L 255.52766,129.89075 C 256.23137,127.09055 256.62117,124.17621 256.67671,121.14031 C 256.5847,118.95326 256.21185,117.04076 255.41717,115.43926 C 254.13584,112.97403 252.29627,111.78047 250.09177,111.17453 C 247.97782,110.56192 245.68709,110.53017 243.50685,110.53371 z " />
  </g>
  <g
     inkscape:groupmode="layer"
     id="layer5"
     inkscape:label="Subaru-Vista-Blue"
     style="display:inline">
    <path
       id="path2892"
       style="fill:#009a89;fill-opacity:1;fill-rule:evenodd;stroke:none;stroke-width:1px;stroke-linecap:butt;stroke-linejoin:miter;stroke-opacity:1"
       d="M 447.94909,10.750149 L 508.67189,10.750149 L 467.12937,159.85731 L 447.94909,10.750149 z M 305.55547,10.750149 L 262.59873,159.85731 L 308.03034,159.85731 C 304.13643,152.53683 304.39116,143.19262 307.32323,132.5424 L 310.24005,122.28936 C 312.35961,115.45072 314.78335,103.61414 311.07119,95.14374 C 309.58277,91.74747 307.15573,87.663004 301.93154,84.459154 C 315.0834,81.72462 324.42796,74.509037 329.7185,63.56762 C 334.21338,54.271702 337.16042,41.161114 333.60046,26.065702 C 330.00887,21.072345 326.0698,16.757055 321.37698,14.190414 C 316.34218,11.848478 311.06166,10.73516 305.55547,10.750149 z " />
  </g>
  <g
     inkscape:groupmode="layer"
     id="layer2"
     inkscape:label="Strips"
     style="display:inline">
    <path
       id="path1940"
       style="fill:#0a2c72;fill-opacity:1;fill-rule:evenodd;stroke:none;stroke-width:1px;stroke-linecap:butt;stroke-linejoin:miter;stroke-opacity:1"
       d="M 10.04797,159.85731 L 53.231991,10.750149 L 56.00991,10.750149 L 12.649112,159.85731 L 10.04797,159.85731 z M 23.517639,159.85731 L 66.70166,10.750149 L 69.833132,10.750149 L 26.472334,159.85731 L 23.517639,159.85731 z M 36.810531,159.85731 L 79.994552,10.750149 L 83.833122,10.750149 L 40.472333,159.85731 L 36.810531,159.85731 z M 49.749869,159.85731 L 92.93387,10.750149 L 97.65632,10.750149 L 54.295555,159.85731 L 49.749869,159.85731 z M 63.042761,159.85731 L 106.22675,10.750149 L 111.35821,10.750149 L 68.295554,159.85731 L 63.042761,159.85731 z M 76.224749,159.85731 L 119.40877,10.750149 L 125.24735,10.750149 L 82.063322,159.85731 L 76.224749,159.85731 z M 89.694422,159.85731 L 132.87844,10.750149 L 139.24735,10.750149 L 95.88655,159.85731 L 89.694422,159.85731 z M 102.63376,159.85731 L 145.81778,10.750149 L 153.07056,10.750149 L 109.70977,159.85731 L 102.63376,159.85731 z M 115.92665,159.85731 L 159.11065,10.750149 L 166.89376,10.750149 L 123.53299,159.85731 L 115.92665,159.85731 z M 129.04276,159.85731 L 172.22675,10.750149 L 176.9492,10.750149 L 133.70977,159.85731 L 129.04276,159.85731 z " />
  </g>
</svg>
