<?xml version="1.0" encoding="utf-8"?>
<!-- Svg Vector Icons : http://www.onlinewebfonts.com/icon -->
<!DOCTYPE svg PUBLIC "-//W3C//DTD SVG 1.1//EN" "http://www.w3.org/Graphics/SVG/1.1/DTD/svg11.dtd">
<svg version="1.1" xmlns="http://www.w3.org/2000/svg" xmlns:xlink="http://www.w3.org/1999/xlink" x="0px" y="0px" viewBox="0 0 256 256" enable-background="new 0 0 256 256" xml:space="preserve">
<metadata> Svg Vector Icons : http://www.onlinewebfonts.com/icon </metadata>
<g> <path fill="#000000" d="M206.7,88.7v78.7H36.2V88.7H206.7z M219.8,147.7h13.1v-39.3h-13.1V78.8c0-1-0.3-1.7-0.9-2.4 c-0.6-0.6-1.4-0.9-2.4-0.9H26.4c-1,0-1.7,0.3-2.4,0.9c-0.6,0.6-0.9,1.4-0.9,2.4v98.3c0,1,0.3,1.7,0.9,2.4c0.6,0.6,1.4,0.9,2.4,0.9 h190.1c1,0,1.7-0.3,2.4-0.9c0.6-0.6,0.9-1.4,0.9-2.4V147.7z M246,108.3v39.3c0,3.6-1.3,6.7-3.8,9.3c-2.6,2.6-5.7,3.8-9.3,3.8v16.4 c0,4.5-1.6,8.4-4.8,11.6c-3.2,3.2-7.1,4.8-11.6,4.8H26.4c-4.5,0-8.4-1.6-11.6-4.8c-3.2-3.2-4.8-7.1-4.8-11.6V78.8 c0-4.5,1.6-8.4,4.8-11.6c3.2-3.2,7.1-4.8,11.6-4.8h190.1c4.5,0,8.4,1.6,11.6,4.8c3.2,3.2,4.8,7.1,4.8,11.6v16.4 c3.6,0,6.7,1.3,9.3,3.8C244.7,101.6,246,104.7,246,108.3L246,108.3z"/></g>
</svg>